# xmcd CD database file
# Copyright (C) 1997 Ti Kan
#
# Track frame offsets:
#  150
#  12257
#  30117
#  38365
#  54090
#  62705
#  74925
#  88242
#  98942
#  114870
#  129497
#  139515
#  151145
#  170490
#  186160
#  195997
#  207487
#  219982
#  233370
#  241627
#  247045
#
# Disc length: 3434 seconds
#
# Revision: 1
# Processed by: cddbd v1.4b41PL1 Copyright (c) Steve Scherf et al.
# Submitted via: CDWizzard Release:4.31
#
DISCID=0c0d6815
DTITLE=Big Joe Williams - Back To The Country
DYEAR=1900
DGENRE=
TTITLE0=Ain't Gonna Be Your Lowdown Dog
TTITLE1=Annie Mae
TTITLE2=You Can Stay Out
TTITLE3=Mean Backstabber
TTITLE4=Worry You Off My Mind
TTITLE5=Miss Ida B
TTITLE6=Put On Your Nightcap
TTITLE7=Woody Woodpecker
TTITLE8=I Got My Ticket
TTITLE9=Saturday Night Ball
TTITLE10=Shake Your Boogie
TTITLE11=See See Rider
TTITLE12=Blues Everywhere I Go
TTITLE13=Worried And Lonesome
TTITLE14=My Black Woman
TTITLE15=The Moon Is Rising
TTITLE16=Down The Line
TTITLE17=My Baby Left Me A Mule To Ride
TTITLE18=Desert Blues
TTITLE19=Breakdown
TTITLE20=Goin' Back Home
EXTD=
EXTT0=
EXTT1=
EXTT2=
EXTT3=
EXTT4=
EXTT5=
EXTT6=
EXTT7=
EXTT8=
EXTT9=
EXTT10=
EXTT11=
EXTT12=
EXTT13=
EXTT14=
EXTT15=
EXTT16=
EXTT17=
EXTT18=
EXTT19=
EXTT20=
PLAYORDER=
